<mxfile host="65bd71144e">
    <diagram name="Page-1" id="ijdw5SyNK714m1Jyg3k9">
        <mxGraphModel dx="1145" dy="629" grid="0" gridSize="10" guides="1" tooltips="1" connect="1" arrows="1" fold="1" page="1" pageScale="1" pageWidth="850" pageHeight="1100" background="#FFFFFF" math="0" shadow="0">
            <root>
                <mxCell id="0"/>
                <mxCell id="1" parent="0"/>
                <mxCell id="81" value="" style="rounded=1;whiteSpace=wrap;html=1;fillColor=none;dashed=1;dashPattern=12 12;fontColor=#000000;strokeColor=#000000;" parent="1" vertex="1">
                    <mxGeometry x="550" y="20" width="520" height="470" as="geometry"/>
                </mxCell>
                <mxCell id="RWla2y_zdWNwznIZ30Nt-1" value="Camera" style="swimlane;fontStyle=1;align=center;verticalAlign=top;childLayout=stackLayout;horizontal=1;startSize=26;horizontalStack=0;resizeParent=1;resizeParentMax=0;resizeLast=0;collapsible=1;marginBottom=0;whiteSpace=wrap;html=1;labelBackgroundColor=none;strokeColor=#000000;fillColor=none;fontColor=#000000;" parent="1" vertex="1">
                    <mxGeometry x="90" y="69.5" width="370" height="371" as="geometry"/>
                </mxCell>
                <mxCell id="RWla2y_zdWNwznIZ30Nt-2" value="&lt;div&gt;- _parser: ArgumentParser&lt;/div&gt;&lt;div&gt;- _args: Namespace&lt;/div&gt;&lt;div&gt;- _camera: VideoCapture&lt;/div&gt;&lt;div&gt;- _model: YOLO&lt;br&gt;&lt;/div&gt;&lt;div&gt;&lt;span style=&quot;background-color: initial;&quot;&gt;+ confidence: float&lt;/span&gt;&lt;br&gt;&lt;/div&gt;&lt;div&gt;+ iou: float&lt;/div&gt;&lt;div&gt;+ max_detections: int&lt;/div&gt;&lt;div&gt;&lt;span style=&quot;background-color: initial;&quot;&gt;- _pool: ThreadPool&lt;/span&gt;&lt;br&gt;&lt;/div&gt;&lt;div&gt;&lt;span style=&quot;background-color: initial;&quot;&gt;- _pending: deque&lt;/span&gt;&lt;br&gt;&lt;/div&gt;" style="text;strokeColor=none;fillColor=none;align=left;verticalAlign=top;spacingLeft=4;spacingRight=4;overflow=hidden;rotatable=0;points=[[0,0.5],[1,0.5]];portConstraint=eastwest;whiteSpace=wrap;html=1;labelBackgroundColor=none;fontColor=#000000;" parent="RWla2y_zdWNwznIZ30Nt-1" vertex="1">
                    <mxGeometry y="26" width="370" height="139" as="geometry"/>
                </mxCell>
                <mxCell id="RWla2y_zdWNwznIZ30Nt-3" value="" style="line;strokeWidth=1;fillColor=none;align=left;verticalAlign=middle;spacingTop=-1;spacingLeft=3;spacingRight=3;rotatable=0;labelPosition=right;points=[];portConstraint=eastwest;strokeColor=inherit;" parent="RWla2y_zdWNwznIZ30Nt-1" vertex="1">
                    <mxGeometry y="165" width="370" height="8" as="geometry"/>
                </mxCell>
                <mxCell id="RWla2y_zdWNwznIZ30Nt-4" value="&lt;div&gt;+ __init__(camera_type: str, title: str, model: str, device: str, confidence: float, iou: float, max_detections: int, video_strides: int, width: int, height: int, fps: float, n_threads: int)&lt;/div&gt;&lt;div&gt;+ run(): None&lt;br&gt;&lt;/div&gt;&lt;div&gt;- _init_parser(cam: str, device: str, title: str, model: str, conf: str, iou: str, max: int, strides: int, width: int, height: int, fps: float, n_threads: int): None&lt;/div&gt;&lt;div&gt;- _process_frame(frame: MatLike): list[Results]&lt;br&gt;&lt;/div&gt;&lt;div&gt;- _quit(): None&lt;/div&gt;&lt;div&gt;- _changeConfidence(new_conf: int): None&lt;/div&gt;&lt;div&gt;- _changeIOU(new_iou: int): None&lt;/div&gt;&lt;div&gt;- _changeMaxDetections(new_max_det: int): None&lt;/div&gt;&lt;div&gt;- _showWindow(results: list[Results]): None&lt;br&gt;&lt;/div&gt;" style="text;strokeColor=none;fillColor=none;align=left;verticalAlign=top;spacingLeft=4;spacingRight=4;overflow=hidden;rotatable=0;points=[[0,0.5],[1,0.5]];portConstraint=eastwest;whiteSpace=wrap;html=1;labelBackgroundColor=none;fontColor=#000000;" parent="RWla2y_zdWNwznIZ30Nt-1" vertex="1">
                    <mxGeometry y="173" width="370" height="198" as="geometry"/>
                </mxCell>
                <mxCell id="8" value="&lt;b&gt;multiprocessing&lt;/b&gt;" style="shape=folder;xSize=90;align=left;spacingLeft=10;align=left;verticalAlign=top;spacingLeft=5;spacingTop=-4;tabWidth=102;tabHeight=18;tabPosition=left;html=1;recursiveResize=0;fontColor=#000000;fillColor=none;strokeColor=#000000;" parent="1" vertex="1">
                    <mxGeometry x="870" y="240" width="111" height="100" as="geometry"/>
                </mxCell>
                <mxCell id="27" value="&lt;b&gt;torch&lt;/b&gt;" style="shape=folder;xSize=90;align=left;spacingLeft=10;align=left;verticalAlign=top;spacingLeft=5;spacingTop=-4;tabWidth=45;tabHeight=18;tabPosition=left;html=1;recursiveResize=0;fontColor=#000000;fillColor=none;strokeColor=#000000;" parent="1" vertex="1">
                    <mxGeometry x="580" y="317" width="220" height="150" as="geometry"/>
                </mxCell>
                <mxCell id="46" value="backends" style="shape=folder;fontStyle=1;tabWidth=65;tabHeight=30;tabPosition=left;html=1;boundedLbl=1;labelInHeader=1;container=1;collapsible=0;recursiveResize=0;fillColor=none;fontColor=#000000;strokeColor=#000000;" parent="27" vertex="1">
                    <mxGeometry x="110" y="25" width="103.75" height="115" as="geometry"/>
                </mxCell>
                <mxCell id="61" value="mps" style="shape=folder;fontStyle=1;tabWidth=40;tabHeight=30;tabPosition=left;html=1;boundedLbl=1;labelInHeader=1;container=1;collapsible=0;fillColor=none;fontColor=#000000;strokeColor=#000000;" parent="46" vertex="1">
                    <mxGeometry x="3.75" y="35" width="90" height="75" as="geometry"/>
                </mxCell>
                <mxCell id="62" value="&lt;span style=&quot;text-align: left;&quot;&gt;+&amp;nbsp;&lt;/span&gt;is_available()" style="html=1;strokeColor=none;resizeWidth=1;resizeHeight=1;fillColor=none;part=1;connectable=0;allowArrows=0;deletable=0;fontColor=#000000;" parent="61" vertex="1">
                    <mxGeometry width="90" height="40" relative="1" as="geometry">
                        <mxPoint y="30" as="offset"/>
                    </mxGeometry>
                </mxCell>
                <mxCell id="31" value="&lt;span style=&quot;text-align: left;&quot;&gt;+&amp;nbsp;&lt;/span&gt;device" style="rounded=0;whiteSpace=wrap;html=1;fillColor=none;fontColor=#000000;strokeColor=#000000;" parent="27" vertex="1">
                    <mxGeometry x="20" y="110" width="58" height="30" as="geometry"/>
                </mxCell>
                <mxCell id="63" value="cuda" style="shape=folder;fontStyle=1;tabWidth=40;tabHeight=35;tabPosition=left;html=1;boundedLbl=1;labelInHeader=1;container=1;collapsible=0;fillColor=none;fontColor=#000000;strokeColor=#000000;" parent="27" vertex="1">
                    <mxGeometry x="10" y="25" width="90" height="75" as="geometry"/>
                </mxCell>
                <mxCell id="64" value="&lt;span style=&quot;text-align: left;&quot;&gt;+&amp;nbsp;&lt;/span&gt;is_available()" style="html=1;strokeColor=none;resizeWidth=1;resizeHeight=1;fillColor=none;part=1;connectable=0;allowArrows=0;deletable=0;fontColor=#000000;" parent="63" vertex="1">
                    <mxGeometry width="90" height="30" relative="1" as="geometry">
                        <mxPoint y="40" as="offset"/>
                    </mxGeometry>
                </mxCell>
                <mxCell id="42" value="ultralytics" style="shape=folder;fontStyle=1;tabWidth=70;tabHeight=30;tabPosition=left;html=1;boundedLbl=1;labelInHeader=1;container=1;collapsible=0;recursiveResize=0;fillColor=none;fontColor=#000000;strokeColor=#000000;" parent="1" vertex="1">
                    <mxGeometry x="870" y="43" width="140" height="180" as="geometry"/>
                </mxCell>
                <mxCell id="43" value="+ YOLO" style="html=1;fillColor=none;fontColor=#000000;strokeColor=#000000;" parent="42" vertex="1">
                    <mxGeometry width="60" height="30" relative="1" as="geometry">
                        <mxPoint x="70" y="35" as="offset"/>
                    </mxGeometry>
                </mxCell>
                <mxCell id="50" value="engine" style="shape=folder;fontStyle=1;tabWidth=50;tabHeight=30;tabPosition=left;html=1;boundedLbl=1;labelInHeader=1;container=1;collapsible=0;recursiveResize=0;fillColor=none;fontColor=#000000;strokeColor=#000000;" parent="42" vertex="1">
                    <mxGeometry x="10" y="45" width="110" height="125" as="geometry"/>
                </mxCell>
                <mxCell id="68" value="pool" style="shape=folder;fontStyle=1;tabWidth=40;tabHeight=20;tabPosition=left;html=1;boundedLbl=1;labelInHeader=1;container=1;collapsible=0;fillColor=none;fontColor=#000000;strokeColor=#000000;" parent="1" vertex="1">
                    <mxGeometry x="880" y="270" width="90" height="60" as="geometry"/>
                </mxCell>
                <mxCell id="69" value="&lt;span style=&quot;text-align: left;&quot;&gt;+&amp;nbsp;&lt;/span&gt;ThreadPool" style="html=1;strokeColor=none;resizeWidth=1;resizeHeight=1;fillColor=none;part=1;connectable=0;allowArrows=0;deletable=0;fontColor=#000000;" parent="68" vertex="1">
                    <mxGeometry width="90.00000000000001" height="40" relative="1" as="geometry">
                        <mxPoint y="20" as="offset"/>
                    </mxGeometry>
                </mxCell>
                <mxCell id="73" value="&lt;b&gt;cv2&lt;/b&gt;" style="shape=folder;xSize=90;align=left;spacingLeft=10;align=left;verticalAlign=top;spacingLeft=5;spacingTop=-4;tabWidth=35;tabHeight=20;tabPosition=left;html=1;recursiveResize=0;fillColor=none;fontColor=#000000;strokeColor=#000000;" parent="1" vertex="1">
                    <mxGeometry x="580" y="43" width="270" height="257" as="geometry"/>
                </mxCell>
                <mxCell id="75" value="typing" style="shape=folder;fontStyle=1;tabWidth=50;tabHeight=20;tabPosition=left;html=1;boundedLbl=1;labelInHeader=1;container=1;collapsible=0;fillColor=none;fontColor=#000000;strokeColor=#000000;" parent="1" vertex="1">
                    <mxGeometry x="778.75" y="154" width="62.5" height="49" as="geometry"/>
                </mxCell>
                <mxCell id="76" value="+ MatLike" style="html=1;strokeColor=none;resizeWidth=1;resizeHeight=1;fillColor=none;part=1;connectable=0;allowArrows=0;deletable=0;fontColor=#000000;" parent="75" vertex="1">
                    <mxGeometry width="62.5" height="28.26923076923077" relative="1" as="geometry">
                        <mxPoint y="19" as="offset"/>
                    </mxGeometry>
                </mxCell>
                <mxCell id="74" value="+ VideoCapture&lt;br&gt;+ namedWindow()&lt;br&gt;+&amp;nbsp;imshow()&lt;br&gt;+&amp;nbsp;waitKey()&lt;br&gt;+&amp;nbsp;setTrackbarMin()&lt;br&gt;+&amp;nbsp;getNumberOfCPUs()&lt;br&gt;+&amp;nbsp;destroyAllWindows()&lt;br&gt;+&amp;nbsp;getTrackbarPos()&lt;br&gt;+&amp;nbsp;createTrackbar()&lt;br&gt;+&amp;nbsp;setNumThreads()&lt;br&gt;+&amp;nbsp;CAP_PROP_FRAME_WIDTH&lt;br&gt;+&amp;nbsp;CAP_PROP_FRAME_HEIGHT&lt;br&gt;+&amp;nbsp;CAP_PROP_FPS&lt;br&gt;+&amp;nbsp;WINDOW_GUI_EXPANDED" style="rounded=0;whiteSpace=wrap;html=1;fillColor=none;align=left;strokeColor=#000000;fontColor=#000000;" parent="1" vertex="1">
                    <mxGeometry x="587.5" y="70" width="182.5" height="220" as="geometry"/>
                </mxCell>
                <mxCell id="78" value="collections" style="shape=folder;fontStyle=1;tabWidth=70;tabHeight=30;tabPosition=left;html=1;boundedLbl=1;labelInHeader=1;container=1;collapsible=0;fillColor=none;strokeColor=#000000;fontColor=#000000;" parent="1" vertex="1">
                    <mxGeometry x="987" y="255" width="77" height="70" as="geometry"/>
                </mxCell>
                <mxCell id="79" value="&lt;span style=&quot;text-align: left;&quot;&gt;+&amp;nbsp;&lt;/span&gt;deque" style="html=1;strokeColor=none;resizeWidth=1;resizeHeight=1;fillColor=none;part=1;connectable=0;allowArrows=0;deletable=0;fontColor=#000000;" parent="78" vertex="1">
                    <mxGeometry width="77" height="40" relative="1" as="geometry">
                        <mxPoint y="30" as="offset"/>
                    </mxGeometry>
                </mxCell>
                <mxCell id="16" value="&lt;b&gt;os&lt;/b&gt;" style="shape=folder;xSize=90;align=left;spacingLeft=10;align=left;verticalAlign=top;spacingLeft=5;spacingTop=-4;tabWidth=30;tabHeight=20;tabPosition=left;html=1;recursiveResize=0;fontColor=#000000;fillColor=none;strokeColor=#000000;" parent="1" vertex="1">
                    <mxGeometry x="815" y="332" width="116" height="135" as="geometry"/>
                </mxCell>
                <mxCell id="20" value="&lt;span style=&quot;text-align: left;&quot;&gt;+&amp;nbsp;&lt;/span&gt;curdir" style="rounded=0;whiteSpace=wrap;html=1;fillColor=none;fontColor=#000000;strokeColor=#000000;" parent="16" vertex="1">
                    <mxGeometry x="60" y="25" width="48" height="30" as="geometry"/>
                </mxCell>
                <mxCell id="71" value="path" style="shape=folder;fontStyle=1;tabWidth=40;tabHeight=30;tabPosition=left;html=1;boundedLbl=1;labelInHeader=1;container=1;collapsible=0;fillColor=none;fontColor=#000000;strokeColor=#000000;" parent="16" vertex="1">
                    <mxGeometry x="8" y="35" width="80" height="90" as="geometry"/>
                </mxCell>
                <mxCell id="72" value="&lt;span style=&quot;&quot;&gt;+&amp;nbsp;&lt;/span&gt;abspath()&lt;br&gt;&lt;span style=&quot;&quot;&gt;+&amp;nbsp;&lt;/span&gt;join()" style="html=1;strokeColor=none;resizeWidth=1;resizeHeight=1;fillColor=none;part=1;connectable=0;allowArrows=0;deletable=0;align=left;fontColor=#000000;" parent="71" vertex="1">
                    <mxGeometry width="70" height="63" relative="1" as="geometry">
                        <mxPoint x="10" y="30" as="offset"/>
                    </mxGeometry>
                </mxCell>
                <mxCell id="83" value="" style="endArrow=open;startArrow=none;endFill=0;startFill=0;endSize=8;html=1;verticalAlign=bottom;dashed=1;labelBackgroundColor=none;entryX=0;entryY=0.5;entryDx=0;entryDy=0;fontColor=#000000;strokeColor=#000000;" parent="1" target="81" edge="1">
                    <mxGeometry width="160" relative="1" as="geometry">
                        <mxPoint x="460" y="255" as="sourcePoint"/>
                        <mxPoint x="580" y="260" as="targetPoint"/>
                    </mxGeometry>
                </mxCell>
                <mxCell id="98" value="" style="endArrow=block;html=1;endFill=0;exitX=0.5;exitY=0;exitDx=0;exitDy=0;fontColor=#000000;strokeColor=#000000;labelBackgroundColor=none;entryX=0.5;entryY=0.994;entryDx=0;entryDy=0;entryPerimeter=0;" parent="1" source="110" edge="1" target="RWla2y_zdWNwznIZ30Nt-4">
                    <mxGeometry width="50" height="50" relative="1" as="geometry">
                        <mxPoint x="280" y="520" as="sourcePoint"/>
                        <mxPoint x="280" y="450" as="targetPoint"/>
                    </mxGeometry>
                </mxCell>
                <mxCell id="108" value="results" style="shape=folder;fontStyle=1;tabWidth=50;tabHeight=30;tabPosition=left;html=1;boundedLbl=1;labelInHeader=1;container=1;collapsible=0;fillColor=none;fontColor=#000000;strokeColor=#000000;" parent="1" vertex="1">
                    <mxGeometry x="890" y="130" width="80" height="70.34" as="geometry"/>
                </mxCell>
                <mxCell id="109" value="&lt;span style=&quot;text-align: left;&quot;&gt;+&amp;nbsp;&lt;/span&gt;Results" style="html=1;strokeColor=none;resizeWidth=1;resizeHeight=1;fillColor=none;part=1;connectable=0;allowArrows=0;deletable=0;fontColor=#000000;" parent="108" vertex="1">
                    <mxGeometry width="80" height="37.51466666666667" relative="1" as="geometry">
                        <mxPoint y="30" as="offset"/>
                    </mxGeometry>
                </mxCell>
                <mxCell id="110" value="&lt;p style=&quot;margin:0px;margin-top:10px;text-align:center;text-decoration:underline;&quot;&gt;esp32: Camera&lt;br&gt;&lt;/p&gt;&lt;hr&gt;&lt;p style=&quot;margin:0px;margin-top:4px;margin-left:4px;text-align:left;&quot;&gt;camera_type: str = URL&lt;br&gt;&lt;span style=&quot;&quot;&gt;title: str = &quot;ESP32-CAM Livestream&quot;&lt;br&gt;&lt;/span&gt;&lt;span style=&quot;&quot;&gt;width: int = 320&lt;br&gt;&lt;/span&gt;&lt;span style=&quot;&quot;&gt;height: int = 240&lt;/span&gt;&lt;/p&gt;" style="shape=rect;html=1;overflow=fill;whiteSpace=wrap;labelBackgroundColor=none;fillColor=none;fontColor=#000000;strokeColor=#000000;" parent="1" vertex="1">
                    <mxGeometry x="175.5" y="518" width="199" height="100" as="geometry"/>
                </mxCell>
                <mxCell id="112" value="argparse" style="shape=folder;fontStyle=1;tabWidth=61;tabHeight=27;tabPosition=left;html=1;boundedLbl=1;labelInHeader=1;container=1;collapsible=0;fillColor=none;fontColor=#000000;strokeColor=#000000;" vertex="1" parent="1">
                    <mxGeometry x="946" y="369.5" width="105" height="71" as="geometry"/>
                </mxCell>
                <mxCell id="113" value="+ ArgumentParser&lt;br&gt;+ Namespace" style="html=1;strokeColor=none;resizeWidth=1;resizeHeight=1;fillColor=none;part=1;connectable=0;allowArrows=0;deletable=0;align=left;fontColor=#000000;" vertex="1" parent="112">
                    <mxGeometry width="104.36363636363636" height="53.644444444444446" relative="1" as="geometry">
                        <mxPoint y="23" as="offset"/>
                    </mxGeometry>
                </mxCell>
            </root>
        </mxGraphModel>
    </diagram>
</mxfile>